<svg width="860" height="627" viewBox="0 0 860 627" fill="none" xmlns="http://www.w3.org/2000/svg">
<g clip-path="url(#clip0_160_2)">
<path opacity="0.75" d="M688.152 123.373C698.072 183.443 733.806 225.154 783.001 257.451C832.197 289.749 868.088 322.102 857.1 387.188C846.112 452.274 764.645 515.038 674.018 461.178C587.623 409.834 520.976 454.413 469.559 482.049C407.166 515.587 342.557 491.489 305.634 436.228C268.705 380.967 289.544 334.313 323.377 263.95C357.213 193.589 342.423 166.259 326.699 119.826C307.44 62.9518 332.318 -27.2777 434.652 8.48387C568.28 55.1852 659.301 -51.2785 688.152 123.373Z" fill="url(#paint0_linear_160_2)"/>
<path opacity="0.75" d="M607.9 499.902C538.84 500.494 498.144 543.969 453.024 570.05C399.902 600.751 347.746 569.056 301.085 553.555C217.212 525.699 171.608 611.2 79.0332 582.121C-9.57368 554.3 -24.5123 434.275 43.5695 379.336C111.651 324.397 113.337 304.412 108.661 256.041C103.985 207.671 96.6743 117.384 188.833 125.936C268.045 133.284 316.642 121.893 357.078 94.172C397.513 66.4513 540.777 -4.13355 574.258 148.274C590.255 221.102 602.969 247.996 663.173 276.773C723.378 305.55 759.04 361.359 751.27 415.889C743.926 467.524 700.136 499.108 607.9 499.902Z" fill="url(#paint1_linear_160_2)"/>
<path d="M287.999 270C287.999 251.775 302.774 237 320.999 237H617.999C636.224 237 650.999 251.775 650.999 270V569C650.999 587.225 636.224 602 617.999 602H320.999C302.774 602 287.999 587.225 287.999 569V270Z" fill="url(#paint2_linear_160_2)"/>
<path d="M369.759 148.759C368.3 143.118 366.066 137.79 363.182 132.892L369.871 122.818L360.59 113.527L351.301 104.236L341.237 110.932C336.344 108.045 331.02 105.809 325.384 104.349L323.004 92.4966H309.87H296.736L294.349 104.349C288.714 105.809 283.39 108.045 278.497 110.932L268.433 104.236L259.151 113.527L249.869 122.818L256.559 132.892C253.675 137.79 251.44 143.118 249.982 148.759L238.141 151.148V164.295V177.442L249.982 179.824C251.44 185.465 253.675 190.794 256.559 195.691L249.869 205.765L259.151 215.056L268.433 224.347L278.497 217.651C283.39 220.538 288.714 222.774 294.349 224.234L296.736 236.087H309.87H323.004L325.384 224.234C331.02 222.774 336.344 220.538 341.237 217.651L351.301 224.347L360.59 215.056L369.871 205.765L363.182 195.691C366.066 190.794 368.3 185.465 369.759 179.824L381.6 177.442V164.295V151.148L369.759 148.759ZM309.877 210.344C284.464 210.344 263.865 189.725 263.865 164.288C263.865 138.851 284.464 118.232 309.877 118.232C335.29 118.232 355.889 138.851 355.889 164.288C355.889 189.725 335.29 210.344 309.877 210.344Z" fill="url(#paint3_linear_160_2)"/>
<path d="M266.786 61.3389C265.852 57.7088 264.413 54.2845 262.556 51.1322L266.866 44.6485L260.892 38.6692L254.919 32.6898L248.441 36.9968C245.292 35.1386 241.871 33.6986 238.244 32.7628L236.713 25.1377H228.266H219.806L218.275 32.7628C214.648 33.6986 211.221 35.1386 208.078 36.9968L201.6 32.6898L195.627 38.6692L189.653 44.6485L193.956 51.1322C192.1 54.2845 190.661 57.7088 189.726 61.3389L182.108 62.8719V71.3265V79.7812L189.726 81.3142C190.661 84.9443 192.1 88.3686 193.956 91.5209L189.653 98.0046L195.627 103.984L201.6 109.963L208.078 105.65C211.227 107.508 214.648 108.948 218.275 109.884L219.806 117.509H228.253H236.7L238.231 109.884C241.858 108.948 245.279 107.508 248.428 105.65L254.905 109.963L260.879 103.984L266.853 98.0046L262.543 91.5209C264.4 88.3686 265.838 84.9443 266.773 81.3142L274.391 79.7812V71.3265V62.8719L266.786 61.3389ZM228.26 100.964C211.91 100.964 198.65 87.6984 198.65 71.3332C198.65 54.968 211.903 41.702 228.253 41.702C244.602 41.702 257.856 54.968 257.856 71.3332C257.862 87.6984 244.609 100.964 228.26 100.964Z" fill="url(#paint4_linear_160_2)"/>
<path d="M702.668 92.2374C625.455 97.2346 623.99 185.093 623.99 185.093V603.54H313.98V185.1C313.98 185.1 313.628 97.5332 393.042 92.2441H702.668V92.2374Z" fill="url(#paint5_linear_160_2)"/>
<path d="M567.625 201.559H354.69V220.367H567.625V201.559Z" fill="#E0E8EE"/>
<path d="M536.511 245.046H354.69V258.365H536.511V245.046Z" fill="#E0E8EE"/>
<path d="M446.091 280.212H354.69V300.001H446.091V280.212Z" fill="#E0E8EE"/>
<path d="M567.624 280.212H473.094V300.001H567.624V280.212Z" fill="#E0E8EE"/>
<path d="M500.304 318.311H354.69V332.413H500.304V318.311Z" fill="#E0E8EE"/>
<path d="M518.749 353.577H354.69V361.414H518.749V353.577Z" fill="#E0E8EE"/>
<path d="M551.972 388.836H354.69V396.673H551.972V388.836Z" fill="#E0E8EE"/>
<path d="M446.711 467.828H354.058V423.477H446.705V467.828H446.711ZM355.311 466.573H445.458V424.725H355.311V466.573Z" fill="#E0E8EE"/>
<path d="M551.964 424.101H468.983V434.288H551.964V424.101Z" fill="#E0E8EE"/>
<path d="M527.798 445.649H468.983V455.836H527.798V445.649Z" fill="#E0E8EE"/>
<path d="M517.277 494.626H354.69V502.463H517.277V494.626Z" fill="#E0E8EE"/>
<path d="M448.146 529.891H354.69V537.729H448.146V529.891Z" fill="#E0E8EE"/>
<path d="M592.42 550.596H534.003V492.123H592.42V550.596ZM539.479 545.114H586.943V497.605H539.479V545.114Z" fill="url(#paint6_linear_160_2)"/>
<path d="M564.128 533.6L543.589 514.216L549.848 507.566L564.54 521.429L596.662 495.01L602.456 502.071L564.128 533.6Z" fill="url(#paint7_linear_160_2)"/>
<path d="M220.462 405.852C220.462 405.852 222.291 407.597 222.92 409.229C223.416 410.516 225.083 412.224 225.874 413.206C226.665 414.179 229.61 418.748 230.029 420.016C230.201 420.541 229.972 424.128 230.439 425.139C230.906 426.159 232.107 428.115 231.201 428.477C230.296 428.84 228.733 427.38 228.733 427.38C228.733 427.38 229.095 428.334 228.4 428.897C227.046 429.994 226.036 429.555 226.036 429.555C226.036 429.555 225.77 430.766 225.083 431.081C223.578 431.777 222.615 431.329 222.615 431.329C222.615 431.329 222.082 432.102 220.976 432.34C219.566 432.655 218.623 431.567 218.623 431.567C218.623 431.567 216.945 432.359 216.193 431.644C215.44 430.938 215.278 430.022 214.849 429.316C214.42 428.611 212.648 421.752 213.563 416.287C214.477 410.821 210.218 406.729 210.218 406.729L220.462 405.852Z" fill="#DBA585"/>
<path d="M235.529 447.851H211.963C209.571 447.851 207.627 445.905 207.627 443.511V428.641C207.627 426.247 209.571 424.291 211.963 424.291H235.529C237.921 424.291 239.865 426.237 239.865 428.641V443.511C239.865 445.905 237.921 447.851 235.529 447.851ZM211.963 427.201C211.172 427.201 210.533 427.84 210.533 428.631V443.502C210.533 444.293 211.172 444.932 211.963 444.932H235.529C236.32 444.932 236.958 444.293 236.958 443.502V428.631C236.958 427.84 236.32 427.201 235.529 427.201H211.963Z" fill="#1A232F"/>
<path d="M267.956 441.469H179.534V504.881H267.956V441.469Z" fill="#5A5C5A"/>
<path d="M186.188 271.79C186.188 271.79 181.662 271.857 179.727 285.411C177.793 298.965 181.452 304.631 181.891 310.278C182.329 315.915 188.942 352.352 189.114 353.954C189.295 355.566 190.181 374.948 192.754 380.099C195.336 385.25 214.281 414.408 214.538 415.868C214.795 417.318 223.743 410.784 223.743 410.784C223.743 410.784 208.858 379.593 207.991 376.035C207.124 372.478 201.14 354.297 202.083 348.756C203.026 343.214 199.434 312.605 199.777 309.2C200.13 305.795 194.869 273.86 186.188 271.79Z" fill="#DBA585"/>
<path d="M186.187 271.79C186.187 271.79 181.66 271.857 179.726 285.411C177.791 298.965 179.545 303.849 180.707 309.724C181.813 315.276 185.567 349.223 185.748 350.825C185.929 352.437 190.427 372.897 192.762 380.099C194.544 385.574 211.439 414.227 211.687 415.687C211.944 417.146 224.828 408.991 224.828 408.991C224.828 408.991 208.304 376.732 207.446 373.174C206.579 369.616 203.787 357.292 203.692 351.665C203.587 345.055 199.432 312.605 199.785 309.2C200.128 305.795 198.822 276.426 186.187 271.79Z" fill="white"/>
<path d="M148.295 587.922C148.295 587.922 156.185 599.645 159.358 602.478C159.358 602.478 166.677 605.043 167.124 610.022C167.42 613.275 167.134 618.512 158.777 618.741C150.42 618.979 145.055 616.06 143.53 610.986C141.996 605.921 139.108 603.66 139.108 603.66V614.267H137.222C137.222 614.267 136.755 604.013 136.631 602.134C136.516 600.246 135.278 592.997 139.251 589.792C143.235 586.568 148.295 587.922 148.295 587.922Z" fill="#E6D8D1"/>
<path d="M201.794 578.565C201.794 578.565 203.157 581.789 205.739 585.165C207.626 587.636 213.505 597.775 216.097 598.481C218.689 599.187 226.694 600.608 227.399 605.082C228.104 609.555 228.457 612.741 220.576 613.094C212.686 613.447 207.511 613.914 203.747 608.382C199.983 602.85 193.98 598.843 193.98 598.843V613.285H190.921C190.921 613.285 189.511 598.252 188.682 597.184C187.862 596.125 185.737 584.574 193.036 578.574C200.326 572.546 201.794 578.565 201.794 578.565Z" fill="#E6D8D1"/>
<path d="M142.997 361.64C142.997 361.64 133.039 374.603 130.333 389.979C127.636 405.355 131.924 456.958 131.81 464.56C131.695 472.162 124.634 491.067 126.045 505.384C127.455 519.702 139.262 589.78 139.262 589.78L148.295 587.92C148.295 587.92 147.409 515.285 148.295 509.276C149.182 503.267 150.954 481.367 151.307 478.887C151.659 476.416 173.729 411.441 173.729 400.357C173.72 389.273 167.011 343.556 142.997 361.64Z" fill="#DBA585"/>
<path d="M193.025 366.707C193.025 366.707 209.386 429.213 211.33 437.873C213.274 446.534 216.086 453.679 216.086 457.351C216.086 465.878 212.922 479.585 212.922 479.585L201.801 578.556H193.034C193.034 578.556 187.498 520.762 186.621 509.097C185.735 497.431 192.977 479.404 191.214 474.453C189.451 469.503 162.788 412.425 162.788 412.425C162.788 412.425 142.586 348.565 193.025 366.707Z" fill="#DBA585"/>
<path d="M160.725 603.078C160.725 603.078 153.854 606.617 147.612 601.943C141.371 597.279 139.265 589.782 139.265 589.782L148.298 587.922L160.725 603.078Z" fill="#DBA585"/>
<path d="M216.1 598.472C216.1 598.472 209.038 600.236 206.332 598.472C203.626 596.707 194.42 581.131 191.371 580.196C191.371 580.196 194.325 574.196 201.806 578.555C201.796 578.565 214.098 595.877 216.1 598.472Z" fill="#DBA585"/>
<path d="M213.976 447.84C213.976 447.84 183.911 465.553 127.564 465.553C127.564 465.553 124.372 400.138 132.567 381.729C140.762 363.33 195.146 374.776 195.146 374.776C195.146 374.776 212.032 434.315 213.976 447.84Z" fill="#2C3D54"/>
<path d="M172.891 266.906C172.891 266.906 181.63 271.036 184.66 271.647C187.69 272.257 199.468 287.557 201.527 293.146C203.594 298.736 201.527 307.12 197.277 316.954C193.027 326.798 197.038 330.079 195.094 339.913C193.15 349.757 191.454 370.589 191.816 376.054C192.178 381.52 142.731 382.55 131.439 372.592C131.439 372.592 142.779 355.585 144.237 353.152C145.695 350.72 144.484 337.481 143.141 334.076C141.807 330.68 132.916 301.75 132.916 301.75C132.916 301.75 125.645 279.535 132.211 274.432C137.919 269.997 153.461 268.413 156.253 267.44C159.074 266.477 167.193 266.057 172.891 266.906Z" fill="#E6D8D1"/>
<path d="M175.682 286.404L180.99 280.175L176.378 263.798C176.387 263.798 174.834 272.926 175.682 286.404Z" fill="#CFC3BC"/>
<path d="M161.867 204.839C167.061 203.008 186.138 198.525 190.627 222.943C195.115 247.362 181.65 264.731 169.262 260.114C156.883 255.498 149.241 238.615 148.507 225.738C147.793 212.852 155.321 207.148 161.867 204.839Z" fill="#DBA585"/>
<path d="M190.634 222.934C190.634 222.934 191.568 202.035 170.814 201.31C150.059 200.585 144.475 217.687 146.18 230.145C147.877 242.611 156.472 249.183 156.472 249.183C156.472 249.183 155.729 239.101 159.75 236.478C163.781 233.865 179.914 228.638 186.956 216.486C186.956 216.495 190.215 220.33 190.634 222.934Z" fill="#2C323D"/>
<path d="M164.757 220.721C162.022 229.039 153.912 233.846 146.651 231.452C139.39 229.058 135.711 220.378 138.446 212.051C141.181 203.733 149.291 198.926 156.552 201.32C163.823 203.714 167.492 212.404 164.757 220.721Z" fill="#2C323D"/>
<path d="M177.067 256.813C177.067 256.813 175.323 272.857 175.685 278.084C175.685 278.084 166.603 287.193 156.283 267.449C156.283 267.449 160.629 259.313 157.36 248.229C154.082 237.145 177.067 256.813 177.067 256.813Z" fill="#DBA585"/>
<path d="M175.685 278.087V286.404L165.241 278.592L175.685 278.087Z" fill="#DBA585"/>
<path d="M175.683 286.404L171.347 281.034L156.739 266.449L152.003 271.009L175.683 286.404Z" fill="#CFC3BC"/>
<path d="M154.711 267.851C154.711 267.851 166.975 286.48 167.566 294.683C168.148 302.876 163.011 364.218 158.885 383.934C154.768 403.65 124.999 381.711 124.999 381.711C124.999 381.711 145.001 349.309 137.32 323.355C129.64 297.411 126.857 287.033 126.857 287.033C126.857 287.033 129.497 272.582 138.855 270.551C147.059 268.777 154.711 267.851 154.711 267.851Z" fill="white"/>
<path d="M202.35 295.635C202.35 295.635 204.56 303.466 195.946 320.788C195.946 320.788 196.079 342.955 196.327 349.871C196.565 356.796 198.204 382.978 198.204 382.978L189.685 387.977C187.97 388.978 185.845 387.585 186.083 385.611C188.494 365.685 196.346 290.103 179.394 269.786L186.197 271.799C186.188 271.789 198.281 281.7 202.35 295.635Z" fill="white"/>
<path d="M161.84 232.072C161.087 230.155 158.562 229.62 157.104 230.717C155.646 231.805 154.798 235.086 157.104 239.34C159.41 243.585 167.538 246.551 161.84 232.072Z" fill="#DBA585"/>
<path d="M181.002 280.185L187.691 282.035L176.39 263.798L181.002 280.185Z" fill="#F3E4DC"/>
<path d="M171.349 281.034L165.24 289.046L152.69 268.118L156.74 266.449L171.349 281.034Z" fill="#F3E4DC"/>
<path d="M176.703 260.345L176.398 263.559C176.398 263.559 169.185 264.914 159.741 253.382C159.751 253.391 166.44 261.566 176.703 260.345Z" fill="#997761"/>
<path d="M213.841 358.581C213.841 358.581 218.081 361.318 220.53 359.792C222.608 358.485 226.229 358.304 227.344 358.247C228.84 358.171 233.328 356.225 233.443 358.113C233.557 359.993 226.191 361.671 224.723 362.329C223.256 362.997 229.745 366.164 230.469 367.68C231.203 369.197 225.343 379.661 221.14 376.961C216.938 374.272 214.222 368.615 213.393 368.291C212.554 367.967 210.258 366.45 210.258 366.45L213.841 358.581Z" fill="#DBA585"/>
<path d="M133.242 273.476C133.242 273.476 139.131 272.007 144.229 277.482C149.327 282.948 151.871 291.943 153.215 294.852C154.549 297.771 171.416 324.736 172.388 325.346C173.36 325.957 190.503 339.797 198.269 347.208C206.036 354.62 221.178 362.88 221.178 362.88L215.47 370.902C215.47 370.902 169.472 346.359 163.649 337.374C157.827 328.389 134.566 303.475 134.566 303.475C134.566 303.475 120.682 282.528 133.242 273.476Z" fill="#DBA585"/>
<path d="M229.629 366.813C229.629 366.813 241.951 375.913 242.265 377.21C242.58 378.508 242.046 379.147 240.855 378.345C239.673 377.544 228.705 369.894 228.705 369.894C228.705 369.894 241.474 383.115 241.96 384.116C242.246 384.708 241.293 386.005 240.617 385.633C239.94 385.261 226.532 372.88 226.532 372.88C226.532 372.88 238.434 385.242 238.596 386.205C238.739 387.044 237.558 388.017 236.614 387.159C235.671 386.3 223.969 375.446 223.969 375.446C223.969 375.446 232.069 384.994 231.726 385.89C231.516 386.434 230.735 387.598 228.724 385.07C226.713 382.542 221.339 377.077 221.339 377.077L229.629 366.813Z" fill="#DBA585"/>
<path d="M197.972 316.447C197.972 316.447 198.382 344.118 196.695 357.462L195.952 320.797L197.972 316.447Z" fill="#2F386C"/>
<path d="M136.283 271.446C136.283 271.446 139.637 272.008 144.735 277.474C149.833 282.939 152.377 291.934 153.712 294.843C155.046 297.762 171.912 324.727 172.884 325.338C173.856 325.948 187.903 335.601 195.669 343.012C203.435 350.424 217.891 359.275 217.891 359.275L210.468 370.302C210.468 370.302 169.902 347.81 163.47 339.245C156.599 330.097 132.099 303.237 132.099 303.237C132.099 303.237 116.223 278.781 136.283 271.446Z" fill="white"/>
<path d="M228.791 426.675C228.791 426.675 227.209 420.513 225.227 419.597C223.255 418.682 223.693 420.933 223.693 420.933C223.693 420.933 223.293 418.701 221.454 418.825C219.614 418.949 220.281 421.562 220.281 421.562C220.281 421.562 219.51 419.95 217.766 420.732C216.022 421.515 217.07 423.565 217.07 423.565C217.07 423.565 214.707 421.877 214.145 424.176C213.182 428.058 216.089 431.711 216.089 431.711C216.089 431.711 216.994 432.532 218.623 431.664C218.623 431.664 220.51 433.762 222.654 431.435C222.654 431.435 225.799 432.274 226.104 429.66C226.104 429.641 229.725 430.214 228.791 426.675Z" fill="#C99A7D"/>
<path d="M163.942 345.724L150.058 323.299C150.058 323.299 161.893 337.292 163.132 338.799C164.361 340.306 164.475 340.411 164.475 340.411C164.475 340.411 164.113 344.961 163.942 345.724Z" fill="#2F386C"/>
<path d="M420.836 598.977C420.836 598.977 424.047 604.967 426.144 607.342C428.24 609.717 436.273 613.971 436.311 621.039C436.359 628.698 422.78 626.571 417.463 626.294C412.155 626.018 411.754 621.926 409.515 617.586C407.276 613.246 405.027 613.98 404.608 610.489C404.188 606.989 406.771 598.986 406.771 598.986H420.836V598.977Z" fill="#26283A"/>
<path d="M339.984 598.269C339.984 598.269 333.438 605.585 326.796 607.121C320.154 608.647 315.504 610.602 315.456 614.799C315.408 618.996 334.581 621.762 342.176 617.527C353.526 611.213 354.679 613.12 355.936 609.963C357.194 606.806 354.421 598.365 354.507 597.363C354.612 596.123 339.984 598.269 339.984 598.269Z" fill="#26283A"/>
<path d="M340.727 594.778C340.727 594.778 339.86 598.202 339.993 598.278C340.127 598.355 354.964 600.119 354.516 597.372C354.154 595.14 353.63 592.717 353.63 592.717L340.727 594.778Z" fill="#807F7D"/>
<path d="M406.956 596.657C406.956 596.657 406.336 599.928 406.451 600.005C406.574 600.081 421.507 602.752 421.421 600.043C421.354 597.887 420.039 595.369 420.039 595.369L406.956 596.657Z" fill="#807F7D"/>
<path d="M354.22 389.656C354.22 389.656 348.817 442.136 346.016 460.097C342.738 481.101 341.623 498.46 340.708 509.325C339.555 523.003 339.336 590.268 338.526 594.264C337.716 598.261 356.412 595.371 356.412 595.371C356.412 595.371 365.608 507.484 369.038 492.919C372.231 479.355 384.085 420.98 387.001 424.681C389.917 428.382 393.529 492.814 395.682 503.506C397.836 514.199 404.401 597.927 404.401 597.927C404.401 597.927 419.277 600.893 423.231 597.546C423.231 597.546 425.032 525.387 423.66 505.338C423.136 497.697 432.608 413.712 420.468 379.907C414.036 362.032 354.22 389.656 354.22 389.656Z" fill="#2E3048"/>
<path d="M402.678 378.017C402.678 378.017 399.076 372.571 395.264 371.865C391.453 371.169 447.809 343.889 447.656 334.15C447.542 326.243 427.921 311.678 427.921 311.678C427.921 311.678 427.931 311.659 427.921 311.678C427.912 311.687 427.921 311.535 427.921 311.544C427.921 311.554 427.921 311.535 427.921 311.544C427.492 313.109 421.089 336.449 420.879 346.846C420.669 357.643 421.527 394.786 421.527 394.786L407.081 398.659L360.94 399.088L350.41 394.786C350.41 394.786 351.563 382.844 351.992 374.46C352.259 369.128 353.297 359.58 353.031 350.289C353.031 350.289 353.202 340.493 352.23 336.268C352.125 317.639 351.001 299.192 351.001 299.192C350.381 290.741 349.943 282.853 349.695 275.48C351.735 274.402 354.174 273.143 356.137 272.208C362.198 269.318 370.641 265.426 376.063 262.937C379.236 261.477 382.343 260.418 382.343 260.418C382.343 260.418 404.003 258.339 405.756 258.454C406.309 258.492 409.015 259.436 412.569 260.79C420.25 263.709 435.059 269.652 437.412 271.34C440.871 273.82 463.513 333.769 463.837 337.889C464.428 345.301 402.678 378.017 402.678 378.017Z" fill="#D8D6E1"/>
<path d="M351.8 390.848C351.8 390.848 383.495 393.547 411.254 390.848V399.966C411.254 399.966 369.916 403.915 350.409 398.221L351.8 390.848Z" fill="#232536"/>
<path d="M349.179 275.338C349.427 282.826 349.789 290.867 350.418 299.461C350.418 299.461 351.018 320.474 352.228 340.4C352.638 343.252 352.848 346.17 352.619 349.156C352.314 353.057 351.895 357.311 351.39 361.746C351.38 361.804 351.38 361.861 351.37 361.918C351.247 362.967 351.123 364.026 350.999 365.104C350.999 365.123 350.989 365.133 350.989 365.152C348.293 387.357 343.728 412.825 341.346 420.532C340.841 422.144 342.575 423.632 343.814 424.776L352.485 430.251C352.485 430.251 356.059 397.315 357.241 386.136C358.384 375.348 361.986 360.879 363.568 346.781V346.771C365.569 328.887 368.323 311.365 369.81 300.958C373.679 273.86 378.834 261.736 378.834 261.736C376.375 262.471 349.179 275.338 349.179 275.338Z" fill="#21AAE9"/>
<path d="M441.191 331.403C444.946 339.654 406.695 354.362 407.553 356.394C409.621 361.277 418.064 371.226 418.064 371.226C418.064 371.226 468.436 346.283 467.873 340.627C467.464 336.516 443.869 274.278 440.41 271.798C438.418 270.367 423.619 265.111 416.358 262.25C415.034 261.725 410.507 260.027 409.316 259.569C407.772 261.286 397.166 273.009 393.412 317.305C392.783 324.774 394.774 340.579 396.108 353.485C397.528 367.249 399.101 377.998 400.254 389.502C402.531 412.184 404.113 430.231 404.113 430.231L426.669 420.177C430.318 418.346 436.627 413.577 435.255 409.733C430.042 395.11 422.219 367.411 422.209 354.591C422.209 354.591 425.897 319.194 427.889 312.298C427.898 312.298 436.989 322.17 441.191 331.403Z" fill="#21AAE9"/>
<path d="M403.742 260.744C403.742 260.744 403.894 253.304 406.753 238.243C407.515 234.209 383.378 248.85 383.378 248.85C383.378 248.85 383.454 250.262 383.502 252.169C383.53 253.171 383.54 254.316 383.54 255.46C383.54 255.87 383.53 256.271 383.521 256.662C383.502 257.73 383.445 258.751 383.359 259.619C383.263 260.516 382.739 262.089 382.549 262.519C381.558 264.827 395.613 266.572 403.742 260.744Z" fill="#DBA686"/>
<path d="M388.678 268.547L384.676 273.936C384.676 273.936 387.02 277.074 391.184 274.756L388.678 268.547Z" fill="#2E3048"/>
<path d="M385.744 274.145C385.744 274.145 370.564 332.634 373.699 378.171L378.807 387.175L383.59 377.741C383.59 377.741 384.896 296.302 389.06 274.002L385.744 274.145Z" fill="#2E3048"/>
<path d="M384.391 263.53L388.679 268.547C388.679 268.547 395.559 267.211 397.579 263.616C399.59 260.02 384.391 263.53 384.391 263.53Z" fill="#DBA686"/>
<path d="M383.409 259.142C383.409 259.142 383.905 262.967 388.679 268.547L383.476 275.548L380.655 261.021L383.409 259.142Z" fill="#C1BFC9"/>
<path d="M404.208 254.877C404.208 254.877 395.631 265.789 388.675 268.545L391.915 276.548L406.695 258.673L404.208 254.877Z" fill="#C1BFC9"/>
<path d="M260.948 335.792C260.948 335.792 245.043 337.652 244.157 338.673C243.261 339.694 243.471 340.552 244.977 340.447C246.473 340.333 260.424 339.102 260.424 339.102C260.424 339.102 242.194 344.492 241.27 345.15C240.727 345.541 241.041 347.229 241.851 347.239C242.661 347.258 261.11 342.965 261.11 342.965C261.11 342.965 244.1 348.03 243.509 348.822C242.995 349.518 243.662 351.025 244.958 350.73C246.254 350.443 262.368 346.657 262.368 346.657C262.368 346.657 250.275 351.14 250.189 352.132C250.142 352.742 250.342 354.211 253.42 352.952C256.498 351.693 264.121 349.518 264.121 349.518L260.948 335.792Z" fill="#DBA585"/>
<path d="M279.749 336.545C279.749 336.545 274.451 336.822 272.84 334.142C271.468 331.862 268.104 329.792 267.065 329.163C265.684 328.304 262.31 324.174 261.329 325.834C260.357 327.493 266.579 332.892 267.685 334.275C268.781 335.649 261.148 335.143 259.756 336.145C258.365 337.146 259.118 349.785 264.359 349.527C269.591 349.27 274.775 345.521 275.718 345.664C276.661 345.798 279.549 345.626 279.549 345.626L279.749 336.545Z" fill="#DBA585"/>
<path d="M277.539 349.04C277.539 349.04 316.542 343.575 325.204 341.438C329.206 340.456 334.476 334.923 339.488 328.428C341.137 326.291 342.757 324.04 344.301 321.818V321.808C350.447 312.928 355.259 304.41 355.259 304.41C355.259 304.41 373.422 283.101 358.842 273.611C358.842 273.611 352.591 273.477 349.17 275.337C345.644 277.254 338.135 292.954 336.858 295.73C335.581 298.506 321.783 324.326 320.859 324.908C319.934 325.49 306.155 328.485 300.018 329.773C291.127 331.633 274.413 335.105 274.413 335.105L277.539 349.04Z" fill="#21AAE9"/>
<path d="M375.171 402.588H389.999V391.333H375.171V402.588Z" fill="#3E4265"/>
<path d="M399.945 378.686C399.945 378.686 401.785 378.61 402.575 378.19C402.575 378.19 403.957 377.303 404.977 376.731C405.301 376.549 405.587 376.397 405.787 376.33C406.597 376.006 408.484 375.538 410.218 374.212C411.952 372.887 417.613 367.593 417.613 367.593L413.953 361.965L412.267 356.395C412.267 356.395 399.078 357.711 397.315 358.751C397.144 358.856 396.982 358.961 396.829 359.075C395.429 360.105 394.809 361.46 394.142 362.089C393.894 362.318 391.598 364.779 391.722 365.781C391.893 367.173 392.579 368.051 393.437 368.48C393.437 368.48 393.904 371.179 395.295 372.381C395.295 372.381 395.648 374.88 397.801 375.891C397.801 375.891 398.44 378.39 399.945 378.686Z" fill="#DCA787"/>
<path d="M418.068 371.218C418.068 371.218 410.731 365.19 406.757 356.386L429.275 344.043L437.632 361.069L418.068 371.218Z" fill="#21AAE9"/>
<path d="M370.668 211.802C370.668 211.802 365.36 221.645 367.99 223.181C370.163 224.44 365.446 234.103 364.826 235.686C364.207 237.269 368.762 238.414 369.724 239.425C370.687 240.446 373.555 252.941 377.31 253.313C381.055 253.694 397.95 247.809 402.553 243.021C407.155 238.233 410.929 216.609 407.86 207.49C404.792 198.372 380.035 194.604 370.668 211.802Z" fill="#DBA585"/>
<path d="M369.614 213.938C369.614 213.938 364.201 203.313 374.036 195.424C383.87 187.536 402.004 201.376 404.053 201.91C406.092 202.435 417.689 203.236 411.838 223.62C406.807 241.123 406.102 241.857 406.102 241.857C406.102 241.857 402.347 231.718 400.222 230.173C396.906 227.76 389.616 228.341 389.616 228.341C389.616 228.341 393.085 219.118 387.662 217.82C382.25 216.495 375.103 211.897 369.614 213.938Z" fill="#1F2531"/>
<path d="M395.395 223.048C395.871 221.779 397.424 216.342 402.075 219.538C406.734 222.733 399.168 232.977 398.358 233.111C397.548 233.244 391.364 233.693 395.395 223.048Z" fill="#DBA585"/>
<path d="M383.541 255.469C383.541 255.879 383.532 256.28 383.522 256.671C397.33 252.035 400.008 245.053 400.008 245.053C395.7 248.105 383.503 252.178 383.503 252.178C383.532 253.18 383.551 254.324 383.541 255.469Z" fill="#997761"/>
</g>
<defs>
<linearGradient id="paint0_linear_160_2" x1="573.678" y1="496.012" x2="569.366" y2="-1.19897" gradientUnits="userSpaceOnUse">
<stop stop-color="#390598"/>
<stop offset="0.2007" stop-color="#3C079A"/>
<stop offset="0.3618" stop-color="#460C9F"/>
<stop offset="0.5093" stop-color="#5715A9"/>
<stop offset="0.6487" stop-color="#6F22B6"/>
<stop offset="0.7823" stop-color="#8E32C6"/>
<stop offset="0.9099" stop-color="#B346DB"/>
<stop offset="1" stop-color="#D256EC"/>
</linearGradient>
<linearGradient id="paint1_linear_160_2" x1="616.971" y1="595.893" x2="108.209" y2="166.206" gradientUnits="userSpaceOnUse">
<stop stop-color="#D256EC"/>
<stop offset="0.0901" stop-color="#B346DB"/>
<stop offset="0.2177" stop-color="#8E32C6"/>
<stop offset="0.3513" stop-color="#6F22B6"/>
<stop offset="0.4907" stop-color="#5715A9"/>
<stop offset="0.6382" stop-color="#460C9F"/>
<stop offset="0.7993" stop-color="#3C079A"/>
<stop offset="1" stop-color="#390598"/>
</linearGradient>
<linearGradient id="paint2_linear_160_2" x1="265.176" y1="248.639" x2="606.502" y2="699.742" gradientUnits="userSpaceOnUse">
<stop stop-color="#E79D5A"/>
<stop offset="1" stop-color="#EEBE5D"/>
</linearGradient>
<linearGradient id="paint3_linear_160_2" x1="238.152" y1="164.29" x2="381.598" y2="164.29" gradientUnits="userSpaceOnUse">
<stop stop-color="#E79D5A"/>
<stop offset="1" stop-color="#F2D05F"/>
</linearGradient>
<linearGradient id="paint4_linear_160_2" x1="182.112" y1="71.3314" x2="274.403" y2="71.3314" gradientUnits="userSpaceOnUse">
<stop stop-color="#E79D5A"/>
<stop offset="1" stop-color="#F2D05F"/>
</linearGradient>
<linearGradient id="paint5_linear_160_2" x1="508.321" y1="-19.6578" x2="508.321" y2="148.133" gradientUnits="userSpaceOnUse">
<stop stop-color="#E0E8EE"/>
<stop offset="1" stop-color="#FCF8F4"/>
</linearGradient>
<linearGradient id="paint6_linear_160_2" x1="534" y1="521.358" x2="592.418" y2="521.358" gradientUnits="userSpaceOnUse">
<stop stop-color="#E79D5A"/>
<stop offset="1" stop-color="#F2D05F"/>
</linearGradient>
<linearGradient id="paint7_linear_160_2" x1="595.382" y1="530.763" x2="515.401" y2="448.117" gradientUnits="userSpaceOnUse">
<stop stop-color="#E79D5A"/>
<stop offset="1" stop-color="#F2D05F"/>
</linearGradient>
<clipPath id="clip0_160_2">
<rect width="860" height="627" fill="white"/>
</clipPath>
</defs>
</svg>